<svg xmlns="http://www.w3.org/2000/svg" viewBox="0 0 64 64" width="64" height="64" role="img" aria-label="Pomodoro">
  <circle cx="32" cy="36" r="22" fill="none" stroke="#e2564a" stroke-width="6" stroke-linecap="round"
          stroke-dasharray="103.7 34.6" transform="rotate(-90 32 36)"/>
  <circle cx="32" cy="36" r="14.5" fill="#f2776a"/>
  <path d="M32 20c-2.6-4.2-7-5.6-11.6-5.2 2 3.4 5.2 5.4 9.2 6.2-3.6.6-6.6 2.6-8.6 5.8 4.6.8 8.4-.6 11-4.2 2.6 3.6 6.4 5 11 4.2-2-3.2-5-5.2-8.6-5.8 4-.8 7.2-2.8 9.2-6.2-4.6-.4-9 1-11.6 5.2z" fill="#4c9a5a"/>
  <path d="M32 16.5c.9-2.4 2.4-4 4.6-4.9-.4 2.5-1.9 4.3-4.6 4.9z" fill="#3f7f4a"/>
  <path d="M32 30v14M27 34l5 4 5-4" fill="none" stroke="#fff6f4" stroke-width="2.6" stroke-linecap="round" stroke-linejoin="round"/>
</svg>
